<?xml version="1.0" standalone="no"?>
<!DOCTYPE svg PUBLIC "-//W3C//DTD SVG 20010904//EN"
 "http://www.w3.org/TR/2001/REC-SVG-20010904/DTD/svg10.dtd">
<svg version="1.0" xmlns="http://www.w3.org/2000/svg"
 width="1280.000000pt" height="911.000000pt" viewBox="0 0 1280.000000 911.000000"
 preserveAspectRatio="xMidYMid meet">
<metadata>
Created by potrace 1.15, written by Peter Selinger 2001-2017
</metadata>
<g transform="translate(0.000000,911.000000) scale(0.100000,-0.100000)"
fill="#000000" stroke="none">
<path d="M7479 8610 c-137 -72 -355 -486 -416 -790 -14 -69 -33 -138 -43 -155
-11 -18 -26 -87 -39 -175 -19 -130 -51 -400 -51 -428 0 -6 -46 -46 -103 -90
-268 -207 -436 -461 -527 -797 l-27 -100 -271 -5 c-239 -4 -273 -7 -288 -22
-17 -16 -17 -18 1 -38 16 -18 30 -20 144 -20 267 0 346 -54 373 -254 12 -92 6
-144 -21 -178 l-19 -23 -372 -5 -371 -5 -40 -42 c-21 -23 -39 -51 -39 -61 0
-17 5 -18 53 -11 28 4 81 15 116 24 53 14 90 16 205 10 78 -3 166 -10 196 -15
30 -5 86 -11 125 -15 66 -5 72 -8 140 -64 45 -38 74 -70 82 -92 15 -44 17
-199 2 -199 -6 0 -36 7 -67 16 -76 22 -150 14 -292 -33 l-115 -38 250 -5 c163
-3 257 -9 270 -17 34 -19 72 -65 99 -120 24 -49 25 -53 8 -61 -36 -19 -122
-32 -285 -42 -500 -31 -952 -172 -1327 -414 -180 -116 -391 -298 -515 -445
-67 -79 -77 -82 -161 -55 -41 14 -70 38 -179 149 -76 78 -145 158 -166 194
-78 132 -130 348 -173 711 -28 235 -68 387 -133 512 -63 121 -420 451 -656
609 -208 138 -422 228 -592 251 -96 13 -144 6 -268 -38 -77 -27 -79 -28 -165
-15 -48 8 -109 17 -137 21 -117 17 -311 -30 -538 -131 -257 -115 -453 -237
-565 -352 -107 -111 -134 -187 -113 -314 27 -153 139 -304 251 -337 92 -27
125 -22 297 50 538 224 652 263 832 285 88 10 103 9 181 -11 403 -103 729
-374 861 -716 59 -151 198 -574 248 -751 108 -384 229 -604 424 -771 99 -85
136 -98 342 -123 176 -21 269 -44 300 -75 22 -22 19 -93 -6 -133 -29 -48 -22
-77 56 -233 36 -73 69 -152 72 -174 l5 -42 -90 -70 c-50 -38 -142 -106 -204
-150 -230 -164 -323 -253 -417 -401 l-53 -83 4 -222 c5 -204 7 -228 32 -311
75 -248 240 -377 486 -377 154 -1 292 59 427 185 121 113 371 473 419 603 15
41 34 78 43 83 9 4 35 4 59 -1 l43 -9 -6 -72 c-4 -40 -18 -151 -32 -247 -57
-403 -38 -642 69 -842 95 -179 273 -284 521 -307 248 -24 429 32 508 157 42
66 59 131 66 252 7 125 1 149 -110 470 -63 182 -71 214 -72 280 0 84 21 135
66 157 13 6 85 16 159 22 74 6 236 27 360 46 358 56 485 73 647 86 172 13 193
9 242 -47 70 -79 116 -175 286 -586 73 -177 81 -192 157 -283 150 -179 356
-343 467 -371 149 -37 455 33 649 148 79 47 167 132 193 185 47 97 20 237 -73
380 -72 112 -128 175 -338 383 -178 175 -264 277 -324 381 -63 109 -87 247
-47 269 11 5 44 10 73 9 l53 -1 125 -145 c69 -80 184 -207 256 -282 121 -126
139 -141 230 -188 171 -89 338 -130 564 -140 158 -6 290 12 375 53 110 52 208
196 284 420 41 121 40 146 -9 225 -22 35 -55 90 -72 121 l-33 57 -130 46 c-71
26 -181 59 -243 75 -121 31 -219 77 -332 158 -204 146 -421 347 -459 426 l-23
46 107 222 c58 123 138 283 178 357 71 133 72 134 117 147 25 7 79 24 120 38
41 13 149 48 240 76 411 129 793 307 1045 487 37 26 76 54 87 62 17 13 34 10
149 -28 252 -83 507 -135 625 -129 l59 3 -131 43 c-72 23 -193 56 -270 72
-229 49 -344 91 -391 142 l-21 23 94 140 c51 77 117 182 145 233 l51 92 202 0
c110 0 293 -7 406 -15 113 -8 265 -15 339 -15 l134 0 -24 26 c-66 72 -172 85
-671 83 -202 0 -372 2 -377 6 -22 13 -11 157 26 339 20 100 37 183 39 184 7
10 266 41 384 47 74 3 167 12 205 20 39 7 110 19 159 25 49 6 98 15 107 21 26
13 49 50 49 76 0 22 -3 22 -62 17 -77 -7 -197 -26 -383 -59 -189 -34 -472 -46
-509 -21 -53 34 -72 88 -100 295 -26 183 -81 290 -251 486 -105 120 -193 245
-226 319 -11 26 -33 116 -49 199 -110 594 -210 884 -413 1189 -77 116 -234
291 -300 333 -27 18 -29 17 -105 -20 -148 -74 -272 -225 -419 -516 -120 -234
-190 -329 -306 -416 -34 -24 -87 -51 -124 -63 -116 -36 -323 -22 -423 28 -49
24 -58 34 -94 102 -91 175 -133 225 -423 510 -153 150 -303 290 -333 311 -30
21 -90 65 -133 99 -87 67 -115 73 -178 40z"/>
</g>
</svg>
